<svg width="128" height="169" viewBox="0 0 128 169" fill="none" xmlns="http://www.w3.org/2000/svg">
<path d="M71.238 45.8138C64.668 42.5438 57.198 40.9639 49.948 41.9439C41.948 43.0239 32.468 47.0738 26.388 58.8838C22.128 67.4338 19.318 77.0739 28.078 96.0739C28.988 100.934 29.518 122.244 7.54799 128.324C0.877986 130.454 -6.74201 146.724 10.658 161.874C19.108 168.524 55.808 181.644 88.358 132.414C94.848 122.564 120.858 70.5938 71.228 45.8138H71.238Z" fill="url(#paint0_linear_193_5)"/>
<path d="M47.988 135.094C47.118 129.854 45.068 124.854 42.298 120.294C35.408 109.064 28.298 96.2039 27.368 94.4839C27.608 95.0139 27.778 95.5239 28.078 96.0739C28.988 100.934 29.518 122.244 7.54799 128.324C0.877986 130.454 -6.74201 146.724 10.658 161.874C11.818 162.814 13.548 163.854 15.748 164.834C20.608 167.004 26.158 167.554 31.308 166.334C48.228 162.414 49.788 146.634 47.928 135.074L47.988 135.094Z" fill="url(#paint1_linear_193_5)"/>
<path fill-rule="evenodd" clip-rule="evenodd" d="M71.918 31.8739C77.788 31.7939 82.448 25.8239 82.338 18.5439C82.228 11.2639 77.378 5.43386 71.508 5.51386C65.638 5.59386 60.978 11.5639 61.088 18.8439C61.198 26.1239 66.048 31.9539 71.918 31.8739ZM43.678 33.2039C51.088 32.6139 56.488 24.7139 55.748 15.5539C55.008 6.39386 48.398 -0.546139 40.998 0.0338609C33.588 0.623861 28.188 8.52386 28.928 17.6839C29.668 26.8439 36.268 33.7839 43.678 33.1939V33.2039ZM105.728 33.7339C107.898 27.1139 105.328 20.3239 99.988 18.5739C94.638 16.8239 88.548 20.7639 86.378 27.3839C84.208 34.0039 86.778 40.7939 92.118 42.5439C97.468 44.2939 103.558 40.3539 105.728 33.7339ZM116.778 42.5839C120.868 45.4639 121.288 51.9039 117.708 56.9739C114.128 62.0439 107.918 63.8239 103.828 60.9439C99.738 58.0639 99.318 51.6239 102.898 46.5539C106.478 41.4839 112.688 39.7039 116.778 42.5839ZM49.948 41.9439C57.198 40.9639 64.668 42.5439 71.238 45.8139C120.868 70.5939 94.848 122.554 88.358 132.414C82.518 141.214 76.548 148.014 70.648 153.264C81.948 126.904 63.258 103.784 43.828 79.7539C43.528 79.3839 43.228 79.0139 42.928 78.6339C33.658 67.9339 32.128 58.9639 34.308 51.6939C35.118 48.9839 36.848 46.6939 39.358 45.3439C42.878 43.4439 46.538 42.3839 49.948 41.9539V41.9439ZM126.168 67.8739C129.158 71.2539 128.198 76.9839 124.008 80.6839C119.828 84.3839 114.008 84.6439 111.008 81.2639C108.018 77.8839 108.978 72.1539 113.168 68.4539C117.348 64.7539 123.168 64.4939 126.168 67.8739Z" fill="url(#paint2_linear_193_5)"/>
<defs>
<linearGradient id="paint0_linear_193_5" x1="35.868" y1="47.8239" x2="63.698" y2="174.774" gradientUnits="userSpaceOnUse">
<stop stop-color="#FF8E13"/>
<stop offset="1" stop-color="#FF4240"/>
</linearGradient>
<linearGradient id="paint1_linear_193_5" x1="4.35799" y1="124.624" x2="51.208" y2="138.614" gradientUnits="userSpaceOnUse">
<stop stop-color="#FF1B2D"/>
<stop offset="1" stop-color="#B00317"/>
</linearGradient>
<linearGradient id="paint2_linear_193_5" x1="60.348" y1="0.873861" x2="118.528" y2="188.014" gradientUnits="userSpaceOnUse">
<stop stop-color="#FFE545"/>
<stop offset="1" stop-color="#F06009"/>
</linearGradient>
</defs>
</svg>
